<svg xmlns="http://www.w3.org/2000/svg" aria-hidden="true" style="position:absolute;width:0;height:0;overflow:hidden"><defs><symbol id="icon-location" viewBox="0 0 32 32"><path fill="none" stroke="#1c2752" stroke-linecap="round" stroke-linejoin="round" stroke-width="2" d="M16 1C10.479 1 6 5.427 6 10.88c0 6.274 6.667 16.217 9.115 19.652.102.145.235.263.389.344a1.067 1.067 0 0 0 1.383-.344c2.448-3.433 9.115-13.372 9.115-19.652 0-5.453-4.479-9.88-10-9.88z" style="stroke:var(--color1, #1c2752)"/></symbol><symbol id="icon-time" viewBox="0 0 32 32"><path fill="#1c2752" d="M16 0C7.164 0 0 7.164 0 16s7.164 16 16 16 16-7.164 16-16S24.836 0 16 0zm7.385 18.462H16a1.23 1.23 0 0 1-1.23-1.231V6.154a1.228 1.228 0 0 1 2.1-.87c.231.23.36.544.36.87V16h6.154a1.232 1.232 0 0 1 1.231 1.23 1.23 1.23 0 0 1-1.231 1.231z" style="fill:var(--color1, #1c2752)"/></symbol><symbol id="icon-person" viewBox="0 0 32 32"><path fill="#1c2752" d="M21.306 2.327C19.959.826 18.077 0 16 0c-2.088 0-3.976.821-5.317 2.313-1.355 1.508-2.016 3.557-1.861 5.77C9.129 12.449 12.349 16 16 16s6.865-3.551 7.177-7.916c.157-2.193-.508-4.238-1.871-5.757zM28.184 32H3.815c-.319.004-.635-.065-.925-.202s-.546-.34-.751-.593c-.45-.555-.631-1.313-.497-2.079.584-3.344 2.408-6.154 5.274-8.126 2.546-1.751 5.772-2.714 9.083-2.714s6.537.964 9.083 2.714c2.866 1.972 4.689 4.781 5.274 8.125.134.766-.047 1.524-.497 2.079-.204.253-.461.455-.751.593s-.606.207-.925.203z" style="fill:var(--color1, #1c2752)"/></symbol><symbol id="icon-done" viewBox="0 0 32 32"><path fill="none" stroke="#1c2752" stroke-linecap="round" stroke-linejoin="round" stroke-width="4.267" d="M29.867 4.267 10.454 27.734l-8.32-8.8" style="stroke:var(--color1, #1c2752)"/></symbol><symbol id="icon-quote" viewBox="0 0 32 32"><path fill="#1c2752" d="M26.474 5.948c-1.537.651-2.878 1.641-4.023 2.969s-1.836 2.682-2.07 4.063c-.13.729-.195 1.354-.195 1.875 0 .599.065 1.094.195 1.484 1.224-1.276 2.773-1.914 4.648-1.914s3.398.547 4.57 1.641 1.758 2.604 1.758 4.531c0 1.823-.625 3.307-1.875 4.453-1.224 1.146-2.786 1.719-4.687 1.719-2.604 0-4.505-.938-5.703-2.813-.547-.807-.977-1.797-1.289-2.969a14.466 14.466 0 0 1-.469-3.672c0-2.734.703-5.234 2.109-7.5s3.503-4.036 6.289-5.313l.742 1.445zm-16.484 0c-1.536.651-2.878 1.641-4.023 2.969s-1.836 2.682-2.07 4.063c-.13.729-.195 1.354-.195 1.875 0 .599.065 1.094.195 1.484 1.224-1.276 2.773-1.914 4.648-1.914s3.398.547 4.57 1.641c1.172 1.094 1.758 2.604 1.758 4.531 0 1.823-.625 3.307-1.875 4.453-1.224 1.146-2.786 1.719-4.688 1.719-2.604 0-4.505-.938-5.703-2.813-.547-.807-.977-1.797-1.289-2.969a14.466 14.466 0 0 1-.469-3.672c0-2.734.703-5.234 2.109-7.5s3.503-4.036 6.289-5.313l.742 1.445z" style="fill:var(--color1, #1c2752)"/></symbol><symbol id="icon-house--just" viewBox="0 0 32 32"><path d="M0 0h32v32H0V0z"/></symbol><symbol id="icon-wrench" viewBox="0 0 32 32"><path d="M31.342 25.559l-14.392-12.336c0.67-1.259 1.051-2.696 1.051-4.222 0-4.971-4.029-9-9-9-0.909 0-1.787 0.135-2.614 0.386l5.2 5.2c0.778 0.778 0.778 2.051 0 2.828l-3.172 3.172c-0.778 0.778-2.051 0.778-2.828 0l-5.2-5.2c-0.251 0.827-0.386 1.705-0.386 2.614 0 4.971 4.029 9 9 9 1.526 0 2.963-0.38 4.222-1.051l12.336 14.392c0.716 0.835 1.938 0.882 2.716 0.104l3.172-3.172c0.778-0.778 0.731-2-0.104-2.716z"></path></symbol><symbol id="icon-unlocked" viewBox="0 0 32 32"><path d="M24 2c3.308 0 6 2.692 6 6v6h-4v-6c0-1.103-0.897-2-2-2h-4c-1.103 0-2 0.897-2 2v6h0.5c0.825 0 1.5 0.675 1.5 1.5v15c0 0.825-0.675 1.5-1.5 1.5h-17c-0.825 0-1.5-0.675-1.5-1.5v-15c0-0.825 0.675-1.5 1.5-1.5h12.5v-6c0-3.308 2.692-6 6-6h4z"></path></symbol><symbol id="icon-magnet" viewBox="0 0 32 32"><path d="M28 0h-8l2 18c0 3.314-2.686 6-6 6s-6-2.686-6-6l2-18h-8l-2 18c0 7.732 6.268 14 14 14s14-6.268 14-14l-2-18zM24.309 26.309c-2.219 2.219-5.17 3.441-8.309 3.441s-6.089-1.222-8.309-3.441c-2.191-2.191-3.41-5.095-3.441-8.189l1.128-10.151h3.472l-1.101 9.907v0.125c0 2.204 0.858 4.275 2.416 5.834s3.63 2.416 5.834 2.416 4.275-0.858 5.834-2.416c1.558-1.558 2.416-3.63 2.416-5.834v-0.125l-0.014-0.124-1.087-9.783h3.472l1.128 10.151c-0.031 3.094-1.25 5.998-3.441 8.189z"></path></symbol><symbol id="icon-fire" viewBox="0 0 32 32"><path d="M10.031 32c-2.133-4.438-0.997-6.981 0.642-9.376 1.795-2.624 2.258-5.221 2.258-5.221s1.411 1.834 0.847 4.703c2.493-2.775 2.963-7.196 2.587-8.889 5.635 3.938 8.043 12.464 4.798 18.783 17.262-9.767 4.294-24.38 2.036-26.027 0.753 1.646 0.895 4.433-0.625 5.785-2.573-9.759-8.937-11.759-8.937-11.759 0.753 5.033-2.728 10.536-6.084 14.648-0.118-2.007-0.243-3.392-1.298-5.312-0.237 3.646-3.023 6.617-3.777 10.27-1.022 4.946 0.765 8.568 7.555 12.394z"></path></symbol><symbol id="icon-notebook" viewBox="0 0 32 32"><path fill="none" stroke="#ffb342" stroke-linecap="round" stroke-linejoin="round" stroke-width="2.37" d="M24.296 13.236v14.218c0 .406-.065.808-.192 1.183s-.312.716-.546 1.003c-.234.287-.512.515-.817.67s-.633.235-.964.235H6.666c-.668 0-1.309-.326-1.781-.905s-.738-1.366-.738-2.186V8.908c0-.82.265-1.606.738-2.186s1.113-.905 1.781-.905h10.545" style="stroke:var(--color2, #ffb342)"/><path fill="#ffb342" d="M28.774.418c-.095-.128-.21-.231-.338-.302s-.267-.111-.407-.115c-.141-.004-.281.027-.411.091s-.249.16-.349.282l-.802.979c-.097.119-.152.281-.152.45s.055.33.152.45l.735.9c.048.059.105.107.168.139s.131.049.199.049.136-.017.199-.049.12-.079.169-.139l.782-.954c.395-.484.432-1.273.055-1.78zm-3.928 2.923-11.7 14.333a.76.76 0 0 0-.15.313l-.541 1.978c-.013.054-.014.111-.003.165s.034.104.066.143c.032.04.073.068.117.081s.091.013.134-.003l1.611-.664a.575.575 0 0 0 .255-.184l11.68-14.36c.108-.134.169-.315.169-.503s-.061-.369-.169-.503l-.645-.795c-.109-.134-.258-.209-.412-.209s-.302.075-.412.209z" style="fill:var(--color2, #ffb342)"/></symbol><symbol id="icon-trehus" viewBox="0 0 34 32"><path d="M32 30v-2h-2v-12h2v-2h-6v2h2v12h-6v-12h2v-2h-6v2h2v12h-6v-12h2v-2h-6v2h2v12h-6v-12h2v-2h-6v2h2v12h-2v2h-2v2h34v-2h-2z"></path><path d="M16 0h2l16 10v2h-34v-2l16-10z"></path></symbol><symbol id="icon-tohus" viewBox="0 0 32 32"><path d="M32 18.451l-16-12.42-16 12.42v-5.064l16-12.42 16 12.42zM28 18v12h-8v-8h-8v8h-8v-12l12-9z"></path></symbol><symbol id="icon-enhus" viewBox="0 0 32 32"><path d="M0 32h16v-32h-16v32zM10 4h4v4h-4v-4zM10 12h4v4h-4v-4zM10 20h4v4h-4v-4zM2 4h4v4h-4v-4zM2 12h4v4h-4v-4zM2 20h4v4h-4v-4zM18 10h14v2h-14zM18 32h4v-8h6v8h4v-18h-14z"></path></symbol><symbol id="icon-logo--yellow" viewBox="0 0 32 32"><path fill="#ffb342" d="M26.553 19.677h2.988V17.1h-8.639c-.157 2.674-2.319 4.795-4.962 4.795s-4.805-2.121-4.962-4.795H2.899v2.577h2.467c.132.53.305 1.049.512 1.56.236.575.515 1.124.839 1.644l-2.159 2.218 3.4 3.494 2.162-2.222a10.69 10.69 0 0 0 3.486 1.472v3.09h4.814v-3.116a10.86 10.86 0 0 0 1.798-.597 10.54 10.54 0 0 0 1.684-.917l2.124 2.183 3.403-3.497-2.159-2.218a11.276 11.276 0 0 0 1.282-3.094zM25.269 5.889v5.203c0 .353-.281.64-.627.64h-.444a.633.633 0 0 1-.627-.64V4.536a13.083 13.083 0 0 0-4.279-1.899v9.027a.633.633 0 0 1-.627.639h-4.9a.633.633 0 0 1-.627-.639V2.637a13.315 13.315 0 0 0-4.26 1.899v6.556c0 .353-.281.64-.627.64h-.444a.633.633 0 0 1-.627-.64V5.889a13.646 13.646 0 0 0-4.279 9.953h26.642a13.587 13.587 0 0 0-4.273-9.953z" style="fill:var(--color2, #ffb342)"/><path fill="#ffb342" d="M18.037 10.588c0 .298-.21.539-.475.539h-2.684c-.258 0-.474-.241-.474-.538V1.605c0-.298.21-.538.474-.538h2.684c.258 0 .475.241.475.538v8.984z" style="fill:var(--color2, #ffb342)"/></symbol><symbol id="icon-facebook" viewBox="0 0 32 32"><path fill="" d="M31.183 16.854c0-7.983-6.722-14.456-15.012-14.456S1.159 8.871 1.159 16.854c0 7.215 5.489 13.195 12.666 14.281V21.034h-3.813v-4.18h3.813v-3.185c0-3.622 2.242-5.625 5.67-5.625 1.643 0 3.361.283 3.361.283v3.558h-1.894c-1.864 0-2.447 1.114-2.447 2.259v2.71h4.163l-.665 4.18h-3.497v10.102c7.177-1.085 12.666-7.065 12.666-14.282z" style="fill:var(--color1, )"/></symbol><symbol id="icon-twiter" viewBox="0 0 32 32"><path fill="" d="M31.162 6.655a12.852 12.852 0 0 1-3.6.974 6.213 6.213 0 0 0 2.759-3.412 12.586 12.586 0 0 1-3.983 1.496 6.316 6.316 0 0 0-4.578-1.955c-3.465 0-6.268 2.763-6.268 6.169-.002.474.052.946.162 1.407A17.862 17.862 0 0 1 2.73 4.885a6.086 6.086 0 0 0-.852 3.101c0 2.139 1.116 4.03 2.801 5.138a6.219 6.219 0 0 1-2.851-.77v.076c0 2.992 2.165 5.482 5.03 6.048a6.395 6.395 0 0 1-1.651.216 5.97 5.97 0 0 1-1.178-.115c.796 2.451 3.114 4.234 5.86 4.285a12.704 12.704 0 0 1-7.788 2.642c-.5-.001-1-.03-1.496-.089a17.736 17.736 0 0 0 9.597 2.788c11.546 0 17.854-9.403 17.854-17.559 0-.267-.007-.535-.02-.796a12.636 12.636 0 0 0 3.128-3.196z" style="fill:var(--color1, )"/></symbol><symbol id="icon-instagram" viewBox="0 0 32 32"><path fill="" d="M22.108 3.966c1.657.005 3.246.641 4.418 1.77s1.833 2.658 1.837 4.254v12.046c-.005 1.596-.666 3.126-1.837 4.254s-2.76 1.765-4.418 1.769H9.599c-1.657-.005-3.246-.641-4.418-1.769s-1.833-2.658-1.838-4.254V9.99c.005-1.596.666-3.125 1.838-4.254s2.76-1.765 4.418-1.77h12.509zm0-2.409H9.599C4.783 1.557.842 5.352.842 9.99v12.046c0 4.638 3.941 8.433 8.757 8.433h12.509c4.816 0 8.757-3.795 8.757-8.433V9.99c0-4.638-3.941-8.433-8.757-8.433z" style="fill:var(--color1, )"/><path fill="" d="M23.985 9.99c-.371 0-.734-.106-1.043-.305s-.549-.481-.691-.811c-.142-.33-.179-.694-.107-1.044s.251-.672.514-.925c.262-.253.597-.425.961-.495s.741-.034 1.084.103c.343.137.636.368.842.666a1.762 1.762 0 0 1-.233 2.283 1.889 1.889 0 0 1-1.328.528zm-8.131 1.204c.99 0 1.957.283 2.78.812s1.464 1.282 1.843 2.163c.379.88.478 1.849.285 2.784s-.67 1.793-1.37 2.467c-.7.674-1.591 1.133-2.562 1.319s-1.977.09-2.891-.274c-.914-.365-1.696-.982-2.246-1.775s-.843-1.724-.843-2.677c.001-1.278.529-2.502 1.467-3.406s2.21-1.412 3.537-1.413zm0-2.409c-1.485 0-2.936.424-4.17 1.218s-2.196 1.923-2.764 3.244c-.568 1.321-.717 2.774-.427 4.176s1.004 2.69 2.054 3.701c1.05 1.011 2.387 1.699 3.843 1.978s2.965.136 4.337-.411c1.372-.547 2.544-1.473 3.369-2.662s1.265-2.586 1.265-4.015c0-1.917-.791-3.755-2.198-5.111s-3.317-2.117-5.307-2.117z" style="fill:var(--color1, )"/></symbol><symbol id="icon-p" viewBox="0 0 32 32"><path fill="" d="M15.824 0C7.401 0 .571 6.827.571 15.246c0 6.242 3.759 11.605 9.132 13.967-.041-1.062-.007-2.342.266-3.499l1.961-8.311s-.49-.973-.49-2.41c0-2.26 1.307-3.948 2.942-3.948 1.389 0 2.056 1.041 2.056 2.287 0 1.395-.892 3.478-1.348 5.411-.381 1.62.81 2.934 2.411 2.934 2.887 0 4.835-3.709 4.835-8.106 0-3.342-2.254-5.84-6.346-5.84-4.624 0-7.511 3.451-7.511 7.303 0 1.327.395 2.266 1.008 2.988.279.333.32.47.218.851-.075.279-.238.953-.313 1.225-.102.388-.415.524-.763.381-2.131-.871-3.126-3.199-3.126-5.826 0-4.329 3.657-9.522 10.902-9.522 5.822 0 9.656 4.213 9.656 8.733 0 5.983-3.33 10.448-8.233 10.448-1.648 0-3.194-.892-3.725-1.899 0 0-.885 3.512-1.076 4.193-.32 1.178-.953 2.348-1.532 3.267 1.404.414 2.86.625 4.324.626 8.423 0 15.253-6.827 15.253-15.246S24.249 0 15.826 0z" style="fill:var(--color1, )"/></symbol><symbol id="icon-telephone" viewBox="0 0 32 32"><path fill="none" stroke="#1c2752" stroke-miterlimit="10" stroke-width="2.462" d="M29.847 24.377c-1.128-1.136-3.859-2.794-5.183-3.462-1.726-.869-1.868-.94-3.224.067-.905.672-1.506 1.273-2.565 1.047s-3.359-1.499-5.374-3.507c-2.014-2.008-3.361-4.375-3.588-5.43s.384-1.649 1.05-2.556c.939-1.278.868-1.491.065-3.216-.626-1.342-2.332-4.047-3.472-5.169-1.22-1.205-1.22-.992-2.006-.665-.64.269-1.254.597-1.834.978-1.136.755-1.767 1.382-2.208 2.324s-.639 3.151 1.638 7.288c2.277 4.137 3.875 6.252 7.182 9.549s5.85 5.07 9.567 7.155c4.599 2.575 6.362 2.073 7.307 1.633s1.575-1.065 2.331-2.201c.382-.579.71-1.192.98-1.832.327-.783.54-.783-.667-2.002z" style="stroke:var(--color1, #1c2752)"/></symbol><symbol id="icon-mail" viewBox="0 0 32 32"><path fill="none" stroke="#1c2752" stroke-linecap="round" stroke-linejoin="round" stroke-width="2.286" d="M28 4.571H4a2.857 2.857 0 0 0-2.857 2.857v17.143A2.857 2.857 0 0 0 4 27.428h24a2.857 2.857 0 0 0 2.857-2.857V7.428A2.857 2.857 0 0 0 28 4.571z" style="stroke:var(--color1, #1c2752)"/><path fill="none" stroke="#1c2752" stroke-linecap="round" stroke-linejoin="round" stroke-width="2.286" d="m5.714 9.143 10.286 8 10.286-8" style="stroke:var(--color1, #1c2752)"/></symbol></defs></svg>